# xmcd
#
# Track frame offsets:
#   150
#   11610
#   23897
#   35552
#   49860
#   63565
#   76290
#   89040
#   99392
#   112347
#   126150
#   135230
#   147097
#   161047
#   171415
#   182940
#
# Disc length: 2628 seconds
#
# Revision: 2
# Processed by: cddbd v1.5PL3 Copyright (c) Steve Scherf et al.
# Submitted via: AudioBrowser/FreeDBQuery 0.90.695
#
DISCID=e30a4210
DTITLE=Ray Charles - Blues Before Sunrise
DYEAR=1900
DGENRE=Blues
TTITLE0=Confession Blues
TTITLE1=I've Had My Fun
TTITLE2=See See Rider
TTITLE3=Walkin' And Talkin'
TTITLE4=Baby Let Me Hold Your Hand
TTITLE5=Why Did You Go
TTITLE6=Blues Before Sunrise
TTITLE7=Ain't That Fine
TTITLE8=Don't Put All Your Dreams In One Basket
TTITLE9=This Love Of Mine
TTITLE10=All To Myself
TTITLE11=If I Give You My Love
TTITLE12=Late In The Evening Blues
TTITLE13=Sittin' On Top Of The World
TTITLE14=Back Home
TTITLE15=Kiss Me Baby
EXTD=
EXTT0=
EXTT1=
EXTT2=
EXTT3=
EXTT4=
EXTT5=
EXTT6=
EXTT7=
EXTT8=
EXTT9=
EXTT10=
EXTT11=
EXTT12=
EXTT13=
EXTT14=
EXTT15=
PLAYORDER=
